<svg id="Layer_1" data-name="Layer 1" xmlns="http://www.w3.org/2000/svg" viewBox="0 0 512 512"><defs><style>.cls-1{fill:#179dc7}</style></defs><title>Tavola disegno 1</title><path class="cls-1" d="M256 245.24a8.33 8.33 0 0 0-8.33 8.33v83a8.33 8.33 0 1 0 16.66 0v-83a8.33 8.33 0 0 0-8.33-8.33zM206.82 32.65H40.76A40.8 40.8 0 0 0 0 73.4v59.24a8.33 8.33 0 1 0 16.66 0V73.4a24.12 24.12 0 0 1 24.1-24.08h166.06a8.34 8.34 0 1 0 0-16.67z"/><path class="cls-1" d="M471.25 32.65H305.8a8.34 8.34 0 0 0 0 16.67h165.45a24.11 24.11 0 0 1 24.09 24.08v284.42h-52.22a8.33 8.33 0 1 0 0 16.66h52.22v15.27a24.12 24.12 0 0 1-24.09 24.09H40.76a24.12 24.12 0 0 1-24.1-24.09v-15.27h398.69a8.33 8.33 0 0 0 0-16.66h-31.81a36 36 0 0 0 .29-4.52 36.4 36.4 0 0 0-49.24-34 48 48 0 0 0-42.08-25.17h-.21v-40.56a8.33 8.33 0 0 0-16.66 0v69.56a8.33 8.33 0 1 0 16.66 0v-12.34h.21a31.19 31.19 0 0 1 29.9 22.55 8.34 8.34 0 0 0 13.09 4.33 19.7 19.7 0 0 1 31.67 15.63 19.87 19.87 0 0 1-.52 4.51h-221.3a19.69 19.69 0 0 1 19.18-24.19 19.52 19.52 0 0 1 12 4.05 8.33 8.33 0 0 0 13.08-4.32 31.22 31.22 0 0 1 29.92-22.56h.2v12.33a8.33 8.33 0 1 0 16.66 0v-69.55a8.33 8.33 0 0 0-16.66 0v40.56h-.2a48 48 0 0 0-42.08 25.17 36.41 36.41 0 0 0-49.25 34 37.66 37.66 0 0 0 .28 4.51H16.66v-197.4a8.33 8.33 0 0 0-16.66 0v229.34a40.8 40.8 0 0 0 40.76 40.75h142.78l-20.49 47.95H123a8.33 8.33 0 1 0 0 16.66h266a8.33 8.33 0 0 0 0-16.66h-40l-20.54-47.95h142.79A40.8 40.8 0 0 0 512 389.75V73.4a40.8 40.8 0 0 0-40.75-40.75zm-140.42 445.8H181.17l14.24-33.31h121.18z"/><path class="cls-1" d="M262.92 387.56c-4.06-6.17-13.85-4-15.12 3.2a8.32 8.32 0 1 0 15.12-3.2zM334.91 162.1a75.18 75.18 0 0 0-19.58-21.42 121.89 121.89 0 0 0 1.72-20.39 8.33 8.33 0 1 0-16.66 0A103.19 103.19 0 0 1 256 205.38a103.93 103.93 0 0 1-35.8-126.56 64.41 64.41 0 0 0 71.57 0 104.79 104.79 0 0 1 5.37 15.57 8.33 8.33 0 0 0 16.14-4.14 120 120 0 0 0-52.86-72.13 8.34 8.34 0 0 0-8.84 0A119.84 119.84 0 0 0 195 120.29a121.8 121.8 0 0 0 1.72 20.39 75 75 0 0 0-19.62 21.42c-17.06 28.08-11.35 59.7-3.56 81.29a8.33 8.33 0 0 0 13.26 3.49c.28-.23 27.66-23.18 69.2-23.18s68.93 23 69.18 23.17a8.33 8.33 0 0 0 5.44 2 8.5 8.5 0 0 0 2.12-.27 8.31 8.31 0 0 0 5.72-5.23c14.12-39.08 5.86-65.77-3.55-81.27zM256 35.2a103.58 103.58 0 0 1 27.87 28.87 47.79 47.79 0 0 1-55.76 0A103.9 103.9 0 0 1 256 35.2zm-70.1 192c-9.9-37.47 4.83-58.81 15.22-68.61a119.33 119.33 0 0 0 32.71 50.38 133.55 133.55 0 0 0-47.93 18.18zm140.21 0a133.82 133.82 0 0 0-47.94-18.22 119.33 119.33 0 0 0 32.71-50.38c10.4 9.75 25.12 31.09 15.23 68.54z"/><path class="cls-1" d="M257.47 97.49a27.77 27.77 0 1 0 27.78 27.77 27.8 27.8 0 0 0-27.78-27.77zm0 38.88a11.11 11.11 0 1 1 11.11-11.11 11.12 11.12 0 0 1-11.11 11.11z"/></svg>