<svg id="Capa_1" data-name="Capa 1" xmlns="http://www.w3.org/2000/svg" viewBox="0 0 512 512"><defs><style>.cls-1{fill:#179dc7}</style></defs><title>Tavola disegno 1</title><path class="cls-1" d="M488.9 495.42h-56.34v-17c0-38.89-10.37-68.91-30.83-89.22-26.07-25.88-58.79-25.94-60.12-25.94h-41.52v-26.43a116.34 116.34 0 0 0 53.51-45.15c15.95-24.77 19.55-48.6 19.69-49.6a7.85 7.85 0 0 0 .09-1.19v-1.77a29.3 29.3 0 0 0 14.91-8.89c11.73-13 11-33.49 10.22-41.7a21.48 21.48 0 0 0-8.18-15.16 23.37 23.37 0 0 0-2.89-1.92v-34.92c0-43.47-19.79-73.39-36.39-90.82-17.92-18.82-35.82-27.39-36.58-27.71a8.28 8.28 0 0 0-8.14.6l-9.15 6.1C263.09-4.21 229.18.14 227.69.35a8.29 8.29 0 0 0-7.14 8.21V17c-30.73-3.4-51.22 6.6-52.16 7.07a8.28 8.28 0 0 0-3.71 11.12l.1.2 4.4 8.26c1.17 4.82-1.79 8.09-12.67 17.71A201.1 201.1 0 0 0 140 77.23c-17.94 19.77-15.2 76.37-13.93 93.34a24.22 24.22 0 0 0-4.6 2.79 21.45 21.45 0 0 0-8.18 15.17c-.84 8.21-1.52 28.71 10.22 41.7a29.24 29.24 0 0 0 15.1 8.93v1.73a7.85 7.85 0 0 0 .09 1.19c.14 1 3.74 24.84 19.69 49.6a116.34 116.34 0 0 0 53.51 45.15v26.45h-41.46c-1.37 0-34.11.06-60.18 25.94-20.45 20.31-30.83 50.33-30.83 89.22v17H23.1a8.29 8.29 0 1 0 0 16.58h465.8a8.29 8.29 0 1 0 0-16.58zM341.67 379.86A74.71 74.71 0 0 1 390.06 401c17.2 17.07 25.94 43.13 25.94 77.44v17h-85.56l25.84-26a8.29 8.29 0 0 0 1.63-9.35l-8.84-18.93 15.39-23.86a8.29 8.29 0 0 0-1.27-10.52l-28.45-26.87h6.94zM178.8 436l-14.14-21.92L182.73 397v76.65L171 461.82l8.34-17.82a8.27 8.27 0 0 0-.54-8zm20.51-32.92a64 64 0 0 0 112.83 1v91.32H199.31zM332.11 444l8.33 17.84-11.72 11.82V397l18.07 17.07L332.65 436a8.29 8.29 0 0 0-.54 8zM376 219.11a13.18 13.18 0 0 1-2.61 2.22v-37.12a22.39 22.39 0 0 1 2.7.46 8.5 8.5 0 0 0 1.49.44 9 9 0 0 1 2.59 1.34 4.89 4.89 0 0 1 1.83 3.75c1 9.66-.07 22.33-6 28.91zM152.27 88.38a187.34 187.34 0 0 1 15.23-14.59c11.5-10.13 22.27-19.69 17.35-35.68a8.84 8.84 0 0 0-.61-1.46l-.34-.65c8.74-2.45 24-5 43.34-1.22a8.29 8.29 0 0 0 9.76-6.53 7.82 7.82 0 0 0 .16-1.6v-10a73.31 73.31 0 0 1 12.08 1.67c15.14 3.38 29.12 11.05 41.55 22.81A8.28 8.28 0 0 0 301 42l10.34-6.89c13.92 8.12 59.48 39.45 59.48 101.41v8.62l-17.43-16.4v-19.3a8.29 8.29 0 0 0-3-6.42c-2.16-1.77-23.2-17.3-94.23-17.3s-92.1 15.54-94.26 17.28a8.29 8.29 0 0 0-3 6.42v19.27l-17.14 16.13c.02-23.04 2.63-47.77 10.51-56.44zm-16.45 130.73c-5.95-6.58-7-19.25-6-28.91a4.89 4.89 0 0 1 1.86-3.76c1.68-1.32 4.34-2 7-2.27v37.27a13.09 13.09 0 0 1-2.86-2.33zm36.85 64.1a123.78 123.78 0 0 1-17.47-43v-85.28l17.63-16.59a8.28 8.28 0 0 0 2.61-6V114.2c7.66-3.7 30.31-11.9 80.69-11.9s73 8.19 80.7 11.9v18.1a8.28 8.28 0 0 0 2.61 6l17.37 16.34v85.53a123.78 123.78 0 0 1-17.47 43c-18.58 28.51-46.35 44.19-82.57 46.6h-1.54c-36.23-2.37-64-18-82.57-46.55zm47.53 96.64a8.29 8.29 0 0 0 8.29-8.29v-29.24a141.32 141.32 0 0 0 25.94 4.05h3.11a141.32 141.32 0 0 0 25.94-4.05v29.25a8.29 8.29 0 0 0 8.29 8.29H303a47.41 47.41 0 0 1-93.94 0zM96 478.44c0-97.44 71.31-98.58 74.37-98.58h6.33l-28.45 26.87a8.29 8.29 0 0 0-1.25 10.52l15.39 23.86-8.85 18.89a8.27 8.27 0 0 0 1.63 9.34l25.84 26H96zM197.17 162.1a9.89 9.89 0 1 1-9.89 9.89 9.89 9.89 0 0 1 9.89-9.89zm117.66 0a9.89 9.89 0 1 1-9.89 9.89 9.89 9.89 0 0 1 9.89-9.89zm-61 68.16h4.27a19.9 19.9 0 0 0 19.85-19v-45.63a8.29 8.29 0 0 0-16.58 0v44.74a3.32 3.32 0 0 1-3.32 3.32h-4.27a3.32 3.32 0 0 1-3.32-3.32 8.29 8.29 0 0 0-16.58 0 19.9 19.9 0 0 0 19.93 19.89zm53.52 44.22a8.29 8.29 0 0 0-12.9-10.41c-.09.11-10 11-36.44 11-27.42 0-40.78-11.38-41.43-11.95a8.29 8.29 0 0 0-11.12 12.29c.73.66 18.2 16.23 52.55 16.23 34.54 0 48-15.41 49.37-17.16z"/></svg>