<svg id="Layer_1" data-name="Layer 1" xmlns="http://www.w3.org/2000/svg" viewBox="0 0 512 512"><defs><style>.cls-1{fill:#179dc7}</style></defs><title>Tavola disegno 1</title><path class="cls-1" d="M366.93 477.87H128a8.53 8.53 0 0 0-8.53 8.53v17.07a8.53 8.53 0 0 0 17.06 0v-8.54h230.4a8.53 8.53 0 1 0 0-17.06zM187.73 213.33a8.55 8.55 0 0 0 8.54 8.54h34.13a8.54 8.54 0 0 0 8.53-8.54v-51.2a8.53 8.53 0 0 0-8.53-8.53h-34.13a8.54 8.54 0 0 0-8.54 8.53v51.2zm17.07-42.66h17.07v34.13H204.8zM110.93 102.4H8.53A8.53 8.53 0 0 0 0 110.93V281.6a8.54 8.54 0 0 0 17.07 0V119.47h93.86a8.54 8.54 0 1 0 0-17.07zM409.6 418.13a8.54 8.54 0 0 0 8.53 8.54h34.14a8.54 8.54 0 0 0 8.53-8.54v-51.2a8.53 8.53 0 0 0-8.53-8.53h-34.14a8.53 8.53 0 0 0-8.53 8.53zm17.07-42.66h17.06v34.13h-17.06zM42.67 307.2C.49 307.2 0 417 0 418.13a42.75 42.75 0 0 0 34.13 41.81v43.53a8.54 8.54 0 0 0 17.07 0v-43.53a42.74 42.74 0 0 0 34.13-41.81c0-1.13-.48-110.93-42.66-110.93zm0 136.53a25.62 25.62 0 0 1-25.6-25.6c0-42.51 11.42-93.86 25.6-93.86s25.6 51.35 25.6 93.86a25.63 25.63 0 0 1-25.6 25.6zM93.87 256H59.73a8.53 8.53 0 0 0-8.53 8.53v17.07a8.54 8.54 0 0 0 17.07 0v-8.53h17.06v42.66a8.54 8.54 0 1 0 17.07 0v-51.2a8.53 8.53 0 0 0-8.53-8.53zM418.13 221.87h34.14a8.54 8.54 0 0 0 8.53-8.54v-51.2a8.53 8.53 0 0 0-8.53-8.53h-34.14a8.53 8.53 0 0 0-8.53 8.53v51.2a8.54 8.54 0 0 0 8.53 8.54zm8.54-51.2h17.06v34.13h-17.06z"/><path class="cls-1" d="M93.87 153.6H59.73a8.53 8.53 0 0 0-8.53 8.53v51.2a8.54 8.54 0 0 0 8.53 8.54h34.14a8.54 8.54 0 0 0 8.53-8.54v-51.2a8.53 8.53 0 0 0-8.53-8.53zm-8.54 51.2H68.27v-34.13h17.06v34.13zM273.07 213.33a8.54 8.54 0 0 0 8.53 8.54h34.13a8.55 8.55 0 0 0 8.54-8.54v-51.2a8.54 8.54 0 0 0-8.54-8.53H281.6a8.53 8.53 0 0 0-8.53 8.53v51.2zm17.06-42.66h17.07v34.13h-17.07v-34.13zM503.47 102.4h-102.4a8.54 8.54 0 1 0 0 17.07h93.86v342.9a25.12 25.12 0 0 0-8.53-1.57 25.65 25.65 0 0 0-4.38.38 34.08 34.08 0 0 0-59.5 0 25.6 25.6 0 1 0-4.38 50.82h68.26a25.64 25.64 0 0 0 25.6-25.6V110.93a8.53 8.53 0 0 0-8.53-8.53zM486.4 494.93h-68.27a8.53 8.53 0 1 1 4.63-15.67A8.54 8.54 0 0 0 435.7 474a17 17 0 0 1 33.14 0 8.48 8.48 0 0 0 5.1 6 8.58 8.58 0 0 0 7.84-.73c5.55-3.59 13.15.8 13.15 7.14a8.54 8.54 0 0 1-8.53 8.52zM281.6 119.47h34.13a8.55 8.55 0 0 0 8.54-8.54v-51.2a8.54 8.54 0 0 0-8.54-8.53H281.6a8.53 8.53 0 0 0-8.53 8.53v51.2a8.54 8.54 0 0 0 8.53 8.54zm8.53-51.2h17.07v34.13h-17.07V68.27zM273.07 315.73a8.54 8.54 0 0 0 8.53 8.54h34.13a8.55 8.55 0 0 0 8.54-8.54v-51.2a8.54 8.54 0 0 0-8.54-8.53H281.6a8.53 8.53 0 0 0-8.53 8.53v51.2zm17.06-42.66h17.07v34.13h-17.07v-34.13zM196.27 119.47h34.13a8.54 8.54 0 0 0 8.53-8.54v-51.2a8.53 8.53 0 0 0-8.53-8.53h-34.13a8.54 8.54 0 0 0-8.54 8.53v51.2a8.55 8.55 0 0 0 8.54 8.54zm8.53-51.2h17.07v34.13H204.8zM249.94 412.08a8.53 8.53 0 1 0 12.12 0 8.94 8.94 0 0 0-12.12 0zM187.73 315.73a8.55 8.55 0 0 0 8.54 8.54h34.13a8.54 8.54 0 0 0 8.53-8.54v-51.2a8.53 8.53 0 0 0-8.53-8.53h-34.13a8.54 8.54 0 0 0-8.54 8.53v51.2zm17.07-42.66h17.07v34.13H204.8z"/><path class="cls-1" d="M170.67 366.93a8.54 8.54 0 0 0 8.53 8.54h25.6v76.8a8.54 8.54 0 0 0 17.07 0v-76.8h68.26v76.8a8.54 8.54 0 0 0 17.07 0v-76.8h25.6a8.54 8.54 0 0 0 0-17.07H179.2a8.53 8.53 0 0 0-8.53 8.53zM409.6 315.73a8.54 8.54 0 0 0 8.53 8.54h34.14a8.54 8.54 0 0 0 8.53-8.54v-51.2a8.53 8.53 0 0 0-8.53-8.53h-34.14a8.53 8.53 0 0 0-8.53 8.53zm17.07-42.66h17.06v34.13h-17.06z"/><path class="cls-1" d="M366.93 0H145.07a8.54 8.54 0 0 0-8.54 8.53v443.74a8.54 8.54 0 0 0 17.07 0V17.07h204.8v435.2a8.54 8.54 0 0 0 17.07 0V8.53A8.54 8.54 0 0 0 366.93 0z"/></svg>