<?xml version="1.0" encoding="utf-8"?>
<!-- Generator: Adobe Illustrator 16.0.0, SVG Export Plug-In . SVG Version: 6.00 Build 0)  -->
<!DOCTYPE svg PUBLIC "-//W3C//DTD SVG 1.1//EN" "http://www.w3.org/Graphics/SVG/1.1/DTD/svg11.dtd">
<svg version="1.1" id="Layer_1" xmlns="http://www.w3.org/2000/svg" xmlns:xlink="http://www.w3.org/1999/xlink" x="0px" y="0px"
	 width="612px" height="792px" viewBox="0 0 612 792" enable-background="new 0 0 612 792" xml:space="preserve">
<path fill="#EF3D3A" d="M74.321,100.858c-17.58,0-30.339-13.495-30.339-32.087c0-18.645,12.205-31.667,29.681-31.667
	c10.786,0,18.211,4.113,23.268,12.914l31.288-24.654C115.417,9.328,96.003,0,73.663,0C34.724,0,4.222,30.303,4.222,68.987
	c0,18.532,7.314,35.897,20.596,48.897c13.244,12.962,30.905,20.102,49.731,20.102c22.303,0,40.991-8.947,53.721-25.157
	L97.261,87.908C91.113,97.091,84.41,100.858,74.321,100.858z"/>
</svg>
